<svg width="38" height="90" viewBox="0 0 38 90" fill="none" xmlns="http://www.w3.org/2000/svg">
<path d="M4.89893 67.1543L3.31738 67.0771C3.36882 63.5026 2.66162 59.208 1.1958 54.1934C1.81299 54.0133 2.22445 53.9105 2.43018 53.8848C3.04736 55.8135 3.52311 57.215 3.85742 58.0894C4.21745 58.938 4.66748 59.6966 5.20752 60.3652C5.77327 61.0081 6.54476 61.5868 7.52197 62.1011C9.19352 62.9754 11.1222 63.7598 13.3081 64.4541C15.494 65.1484 17.847 65.4956 20.3672 65.4956C22.5531 65.4956 24.7389 64.9556 26.9248 63.8755C29.1364 62.7954 30.2422 60.4167 30.2422 56.7393C30.2422 54.8877 29.9207 53.2933 29.2778 51.9561C28.6349 50.6188 27.7863 49.5387 26.7319 48.7158C25.7033 47.8929 24.4946 47.16 23.106 46.5171C21.743 45.8742 19.9686 45.1413 17.7827 44.3184C14.7482 43.2126 12.2409 42.0811 10.2607 40.9238C8.30632 39.7666 6.75049 38.3394 5.59326 36.6421C4.43604 34.9448 3.85742 32.8747 3.85742 30.4316C3.85742 26.5485 5.28467 23.3211 8.13916 20.7495C10.9937 18.1522 15.0697 16.8535 20.3672 16.8535C23.0674 16.8535 25.729 17.1364 28.3521 17.7021C29.4064 17.9079 30.0622 18.0107 30.3193 18.0107C31.0908 18.0107 31.8623 17.7536 32.6338 17.2393L32.9424 17.085C33.1481 17.085 33.4053 17.1364 33.7139 17.2393C33.6367 17.8307 33.5596 18.4222 33.4824 19.0137C33.431 19.5794 33.3667 20.2095 33.2896 20.9038C33.2381 21.5981 33.1995 22.1382 33.1738 22.5239C33.1481 22.9097 33.1224 23.1668 33.0967 23.2954C33.431 26.4071 33.5853 28.1043 33.5596 28.3872L32.4023 28.4644C32.1966 25.8413 31.3351 23.784 29.8179 22.2925C28.3006 20.7752 26.5905 19.7466 24.6875 19.2065C22.7845 18.6665 20.9587 18.3965 19.21 18.3965C14.9411 18.3965 12.1123 19.5151 10.7236 21.7524C9.36068 23.964 8.6792 26.0599 8.6792 28.04C8.6792 30.123 9.19352 31.8589 10.2222 33.2476C11.2508 34.6105 12.5238 35.6906 14.041 36.4878C15.584 37.2593 17.7441 38.1851 20.5215 39.2651C23.6589 40.4995 26.179 41.6439 28.082 42.6982C29.985 43.7269 31.6823 45.2313 33.1738 47.2114C34.6654 49.1659 35.4111 51.596 35.4111 54.502C35.4111 56.9707 34.7682 59.1951 33.4824 61.1753C32.1966 63.1554 30.2679 64.7241 27.6963 65.8813C25.1247 67.0386 21.9744 67.6172 18.2456 67.6172C14.6196 67.6172 10.8522 67.09 6.94336 66.0356C6.24902 65.8813 5.82471 65.8042 5.67041 65.8042C5.00179 65.8042 4.74463 66.2542 4.89893 67.1543Z" fill="white"/>
<path d="M21.252 40.8462C23.1471 41.1932 24.6686 41.7604 25.8164 42.5479C26.9775 43.3353 27.785 44.2095 28.2388 45.1704C28.6925 46.118 28.9194 47.1257 28.9194 48.1934C28.9194 51.1296 27.8384 53.0181 25.6763 53.8589C23.5142 54.6997 21.3053 55.1201 19.0498 55.1201C18.8363 55.1201 18.4492 55.1068 17.8887 55.0801C17.3281 55.0667 16.7609 55.0534 16.187 55.04C15.6265 55.0267 15.1927 55.0133 14.8857 55C14.5921 55 14.2585 55 13.8848 55C13.084 55 11.7827 55.0534 9.98096 55.1602V54.4194C10.5148 54.366 10.9419 54.2993 11.2622 54.2192C11.5825 54.1258 11.8628 53.9657 12.103 53.7388C12.3433 53.5119 12.4967 53.2049 12.5635 52.8179C12.6969 52.244 12.797 51.0495 12.8638 49.2344C12.9438 47.4193 12.9972 45.5775 13.0239 43.709C13.0506 41.8271 13.064 40.3724 13.064 39.3447C13.064 38.237 13.0506 37.1626 13.0239 36.1216C12.9972 35.0806 12.9238 34.0596 12.8037 33.0586C12.6969 32.0576 12.5501 31.3903 12.3633 31.0566C12.1764 30.6829 11.8962 30.416 11.5225 30.2559C11.1488 30.0957 10.6483 29.9689 10.021 29.8755V29.0947C11.4357 29.2015 12.6836 29.2549 13.7646 29.2549C14.0182 29.2549 14.9458 29.2015 16.5474 29.0947C18.2557 28.9746 19.1566 28.9146 19.25 28.9146C20.5446 28.9146 21.7257 29.1548 22.7935 29.6353C23.8612 30.1157 24.7153 30.8364 25.356 31.7974C26.0099 32.745 26.3369 33.8527 26.3369 35.1206C26.3369 36.4686 25.9232 37.6364 25.0957 38.624C24.2682 39.5983 22.987 40.339 21.252 40.8462ZM15.6064 38.2236V40.686C15.9001 40.6593 16.2404 40.646 16.6274 40.646C17.8286 40.6193 18.883 40.5125 19.7905 40.3257C20.6981 40.1388 21.5055 39.6784 22.2129 38.9443C22.9202 38.2103 23.2739 37.0825 23.2739 35.561C23.2739 34.3599 23.0203 33.3389 22.5132 32.498C22.0194 31.6572 21.3521 31.0166 20.5112 30.5762C19.6704 30.1357 18.7695 29.9155 17.8086 29.9155C16.8877 29.9155 16.3271 30.0223 16.127 30.2358C15.9535 30.3826 15.82 31.4036 15.7266 33.2988C15.6465 35.1807 15.6064 36.8223 15.6064 38.2236ZM15.6064 41.627V49.4746C15.6064 50.8359 15.6331 51.7969 15.6865 52.3574C15.7399 52.918 15.8667 53.3384 16.0669 53.6187C16.2671 53.8856 16.5674 54.0457 16.9678 54.0991C17.3682 54.1525 18.0755 54.1792 19.0898 54.1792C20.1709 54.1792 21.2119 54.0124 22.2129 53.6787C23.2272 53.3317 24.0814 52.7311 24.7754 51.877C25.4694 51.0228 25.8164 49.875 25.8164 48.4336C25.8164 47.6328 25.6629 46.812 25.356 45.9712C25.049 45.1304 24.5885 44.383 23.9746 43.729C23.3607 43.0617 22.5465 42.5212 21.5322 42.1074C20.5312 41.6803 19.3634 41.4668 18.0288 41.4668C17.7085 41.4668 17.3215 41.4801 16.8677 41.5068C16.4272 41.5335 16.0068 41.5736 15.6064 41.627Z" fill="white"/>
</svg>
